<?xml version="1.0" encoding="UTF-8"?>
<svg width="100" height="100" viewBox="0 0 100 100" xmlns="http://www.w3.org/2000/svg">
  <rect width="100" height="100" fill="#f0f0f0"/>
  <g fill="#cccccc">
    <path d="M35,30 L65,30 C67.7614,30 70,32.2386 70,35 L70,65 C70,67.7614 67.7614,70 65,70 L35,70 C32.2386,70 30,67.7614 30,65 L30,35 C30,32.2386 32.2386,30 35,30 Z M35,35 L35,65 L65,65 L65,35 L35,35 Z"/>
    <path d="M45,45 C47.7614,45 50,42.7614 50,40 C50,37.2386 47.7614,35 45,35 C42.2386,35 40,37.2386 40,40 C40,42.7614 42.2386,45 45,45 Z"/>
    <path d="M35,65 L65,65 L65,55 L55,45 L45,55 L35,65 Z"/>
    <path d="M55,45 L65,55 L65,45 L55,45 Z"/>
  </g>
  <text x="50" y="85" font-family="Arial" font-size="10" text-anchor="middle" fill="#666666">Sin imagen</text>
</svg>
